<svg xmlns="http://www.w3.org/2000/svg" viewBox="0 0 512 512">
  <!-- Sound system stack — rendition of the 5-way custom system -->
  <rect width="512" height="512" fill="#BF3F39"/>
  <g stroke="#F0E2C4" stroke-width="5" fill="#0D0B08" stroke-linejoin="round">

    <!-- Tweeter strip -->
    <rect x="164" y="62" width="184" height="34"/>
    <g fill="none">
      <circle cx="190" cy="79" r="10"/>
      <circle cx="223" cy="79" r="10"/>
      <circle cx="256" cy="79" r="10"/>
      <circle cx="289" cy="79" r="10"/>
      <circle cx="322" cy="79" r="10"/>
    </g>

    <!-- Row 2: mid horns (square flares) -->
    <g id="rowB">
      <rect x="72"  y="100" width="92" height="88"/>
      <rect x="164" y="100" width="92" height="88"/>
      <rect x="256" y="100" width="92" height="88"/>
      <rect x="348" y="100" width="92" height="88"/>
    </g>
    <g fill="none">
      <g>
        <rect x="87"  y="113" width="62" height="62"/><rect x="106" y="132" width="24" height="24"/>
        <line x1="87" y1="113" x2="106" y2="132"/><line x1="149" y1="113" x2="130" y2="132"/>
        <line x1="87" y1="175" x2="106" y2="156"/><line x1="149" y1="175" x2="130" y2="156"/>
      </g>
      <g>
        <rect x="179" y="113" width="62" height="62"/><rect x="198" y="132" width="24" height="24"/>
        <line x1="179" y1="113" x2="198" y2="132"/><line x1="241" y1="113" x2="222" y2="132"/>
        <line x1="179" y1="175" x2="198" y2="156"/><line x1="241" y1="175" x2="222" y2="156"/>
      </g>
      <g>
        <rect x="271" y="113" width="62" height="62"/><rect x="290" y="132" width="24" height="24"/>
        <line x1="271" y1="113" x2="290" y2="132"/><line x1="333" y1="113" x2="314" y2="132"/>
        <line x1="271" y1="175" x2="290" y2="156"/><line x1="333" y1="175" x2="314" y2="156"/>
      </g>
      <g>
        <rect x="363" y="113" width="62" height="62"/><rect x="382" y="132" width="24" height="24"/>
        <line x1="363" y1="113" x2="382" y2="132"/><line x1="425" y1="113" x2="406" y2="132"/>
        <line x1="363" y1="175" x2="382" y2="156"/><line x1="425" y1="175" x2="406" y2="156"/>
      </g>
    </g>

    <!-- Row 3: deep horns (pyramid flare to throat) -->
    <g id="rowC">
      <rect x="72"  y="192" width="92" height="92"/>
      <rect x="164" y="192" width="92" height="92"/>
      <rect x="256" y="192" width="92" height="92"/>
      <rect x="348" y="192" width="92" height="92"/>
    </g>
    <g fill="none">
      <g>
        <rect x="84" y="204" width="68" height="68"/><circle cx="118" cy="238" r="11"/>
        <line x1="84" y1="204" x2="110" y2="230"/><line x1="152" y1="204" x2="126" y2="230"/>
        <line x1="84" y1="272" x2="110" y2="246"/><line x1="152" y1="272" x2="126" y2="246"/>
      </g>
      <g>
        <rect x="176" y="204" width="68" height="68"/><circle cx="210" cy="238" r="11"/>
        <line x1="176" y1="204" x2="202" y2="230"/><line x1="244" y1="204" x2="218" y2="230"/>
        <line x1="176" y1="272" x2="202" y2="246"/><line x1="244" y1="272" x2="218" y2="246"/>
      </g>
      <g>
        <rect x="268" y="204" width="68" height="68"/><circle cx="302" cy="238" r="11"/>
        <line x1="268" y1="204" x2="294" y2="230"/><line x1="336" y1="204" x2="310" y2="230"/>
        <line x1="268" y1="272" x2="294" y2="246"/><line x1="336" y1="272" x2="310" y2="246"/>
      </g>
      <g>
        <rect x="360" y="204" width="68" height="68"/><circle cx="394" cy="238" r="11"/>
        <line x1="360" y1="204" x2="386" y2="230"/><line x1="428" y1="204" x2="402" y2="230"/>
        <line x1="360" y1="272" x2="386" y2="246"/><line x1="428" y1="272" x2="402" y2="246"/>
      </g>
    </g>

    <!-- Row 4: scoop bins — woofer over port grid -->
    <g id="rowD">
      <rect x="72"  y="288" width="92" height="176"/>
      <rect x="164" y="288" width="92" height="176"/>
      <rect x="256" y="288" width="92" height="176"/>
      <rect x="348" y="288" width="92" height="176"/>
    </g>
    <g fill="none">
      <g>
        <rect x="82" y="298" width="72" height="72"/>
        <circle cx="118" cy="334" r="30"/><circle cx="118" cy="334" r="12"/><circle cx="118" cy="334" r="3"/>
        <rect x="86"  y="382" width="20" height="20"/><rect x="108" y="382" width="20" height="20"/><rect x="130" y="382" width="20" height="20"/>
        <rect x="86"  y="406" width="20" height="20"/><rect x="108" y="406" width="20" height="20"/><rect x="130" y="406" width="20" height="20"/>
        <rect x="86"  y="430" width="20" height="20"/><rect x="108" y="430" width="20" height="20"/><rect x="130" y="430" width="20" height="20"/>
      </g>
      <g>
        <rect x="174" y="298" width="72" height="72"/>
        <circle cx="210" cy="334" r="30"/><circle cx="210" cy="334" r="12"/><circle cx="210" cy="334" r="3"/>
        <rect x="178" y="382" width="20" height="20"/><rect x="200" y="382" width="20" height="20"/><rect x="222" y="382" width="20" height="20"/>
        <rect x="178" y="406" width="20" height="20"/><rect x="200" y="406" width="20" height="20"/><rect x="222" y="406" width="20" height="20"/>
        <rect x="178" y="430" width="20" height="20"/><rect x="200" y="430" width="20" height="20"/><rect x="222" y="430" width="20" height="20"/>
      </g>
      <g>
        <rect x="266" y="298" width="72" height="72"/>
        <circle cx="302" cy="334" r="30"/><circle cx="302" cy="334" r="12"/><circle cx="302" cy="334" r="3"/>
        <rect x="270" y="382" width="20" height="20"/><rect x="292" y="382" width="20" height="20"/><rect x="314" y="382" width="20" height="20"/>
        <rect x="270" y="406" width="20" height="20"/><rect x="292" y="406" width="20" height="20"/><rect x="314" y="406" width="20" height="20"/>
        <rect x="270" y="430" width="20" height="20"/><rect x="292" y="430" width="20" height="20"/><rect x="314" y="430" width="20" height="20"/>
      </g>
      <g>
        <rect x="358" y="298" width="72" height="72"/>
        <circle cx="394" cy="334" r="30"/><circle cx="394" cy="334" r="12"/><circle cx="394" cy="334" r="3"/>
        <rect x="362" y="382" width="20" height="20"/><rect x="384" y="382" width="20" height="20"/><rect x="406" y="382" width="20" height="20"/>
        <rect x="362" y="406" width="20" height="20"/><rect x="384" y="406" width="20" height="20"/><rect x="406" y="406" width="20" height="20"/>
        <rect x="362" y="430" width="20" height="20"/><rect x="384" y="430" width="20" height="20"/><rect x="406" y="430" width="20" height="20"/>
      </g>
    </g>
  </g>
</svg>
